<svg width="133" height="22" viewBox="0 0 133 22" fill="none" xmlns="http://www.w3.org/2000/svg">
<path d="M5.48 16.16C4.45333 16.16 3.53333 15.9933 2.72 15.66C1.90667 15.3267 1.25333 14.8333 0.76 14.18C0.28 13.5267 0.0266667 12.74 0 11.82H3.64C3.69333 12.34 3.87333 12.74 4.18 13.02C4.48667 13.2867 4.88667 13.42 5.38 13.42C5.88667 13.42 6.28667 13.3067 6.58 13.08C6.87333 12.84 7.02 12.5133 7.02 12.1C7.02 11.7533 6.9 11.4667 6.66 11.24C6.43333 11.0133 6.14667 10.8267 5.8 10.68C5.46667 10.5333 4.98667 10.3667 4.36 10.18C3.45333 9.9 2.71333 9.62 2.14 9.34C1.56667 9.06 1.07333 8.64667 0.66 8.1C0.246667 7.55333 0.04 6.84 0.04 5.96C0.04 4.65333 0.513333 3.63333 1.46 2.9C2.40667 2.15333 3.64 1.78 5.16 1.78C6.70667 1.78 7.95333 2.15333 8.9 2.9C9.84667 3.63333 10.3533 4.66 10.42 5.98H6.72C6.69333 5.52667 6.52667 5.17333 6.22 4.92C5.91333 4.65333 5.52 4.52 5.04 4.52C4.62667 4.52 4.29333 4.63333 4.04 4.86C3.78667 5.07333 3.66 5.38667 3.66 5.8C3.66 6.25333 3.87333 6.60667 4.3 6.86C4.72667 7.11333 5.39333 7.38667 6.3 7.68C7.20667 7.98667 7.94 8.28 8.5 8.56C9.07333 8.84 9.56667 9.24667 9.98 9.78C10.3933 10.3133 10.6 11 10.6 11.84C10.6 12.64 10.3933 13.3667 9.98 14.02C9.58 14.6733 8.99333 15.1933 8.22 15.58C7.44667 15.9667 6.53333 16.16 5.48 16.16Z" fill="#565656"/>
<path d="M23.7247 10.26C23.7247 10.58 23.7047 10.9133 23.6647 11.26H15.9247C15.978 11.9533 16.198 12.4867 16.5847 12.86C16.9847 13.22 17.4714 13.4 18.0447 13.4C18.898 13.4 19.4914 13.04 19.8247 12.32H23.4647C23.278 13.0533 22.938 13.7133 22.4447 14.3C21.9647 14.8867 21.358 15.3467 20.6247 15.68C19.8914 16.0133 19.0714 16.18 18.1647 16.18C17.0714 16.18 16.098 15.9467 15.2447 15.48C14.3914 15.0133 13.7247 14.3467 13.2447 13.48C12.7647 12.6133 12.5247 11.6 12.5247 10.44C12.5247 9.28 12.758 8.26667 13.2247 7.4C13.7047 6.53333 14.3714 5.86667 15.2247 5.4C16.078 4.93333 17.058 4.7 18.1647 4.7C19.2447 4.7 20.2047 4.92667 21.0447 5.38C21.8847 5.83333 22.538 6.48 23.0047 7.32C23.4847 8.16 23.7247 9.14 23.7247 10.26ZM20.2247 9.36C20.2247 8.77333 20.0247 8.30667 19.6247 7.96C19.2247 7.61333 18.7247 7.44 18.1247 7.44C17.5514 7.44 17.0647 7.60667 16.6647 7.94C16.278 8.27333 16.038 8.74667 15.9447 9.36H20.2247Z" fill="#565656"/>
<path d="M25.3489 10.44C25.3489 9.28 25.5822 8.26667 26.0489 7.4C26.5289 6.53333 27.1889 5.86667 28.0289 5.4C28.8822 4.93333 29.8556 4.7 30.9489 4.7C32.3489 4.7 33.5156 5.06667 34.4489 5.8C35.3956 6.53333 36.0156 7.56667 36.3089 8.9H32.6689C32.3622 8.04667 31.7689 7.62 30.8889 7.62C30.2622 7.62 29.7622 7.86667 29.3889 8.36C29.0156 8.84 28.8289 9.53333 28.8289 10.44C28.8289 11.3467 29.0156 12.0467 29.3889 12.54C29.7622 13.02 30.2622 13.26 30.8889 13.26C31.7689 13.26 32.3622 12.8333 32.6689 11.98H36.3089C36.0156 13.2867 35.3956 14.3133 34.4489 15.06C33.5022 15.8067 32.3356 16.18 30.9489 16.18C29.8556 16.18 28.8822 15.9467 28.0289 15.48C27.1889 15.0133 26.5289 14.3467 26.0489 13.48C25.5822 12.6133 25.3489 11.6 25.3489 10.44Z" fill="#565656"/>
<path d="M49.6583 4.86V16.02H46.2383V14.5C45.8916 14.9933 45.4183 15.3933 44.8183 15.7C44.2316 15.9933 43.5783 16.14 42.8583 16.14C42.0049 16.14 41.2516 15.9533 40.5983 15.58C39.945 15.1933 39.4383 14.64 39.0783 13.92C38.7183 13.2 38.5383 12.3533 38.5383 11.38V4.86H41.9383V10.92C41.9383 11.6667 42.1316 12.2467 42.5183 12.66C42.9049 13.0733 43.4249 13.28 44.0783 13.28C44.7449 13.28 45.2716 13.0733 45.6583 12.66C46.0449 12.2467 46.2383 11.6667 46.2383 10.92V4.86H49.6583Z" fill="#565656"/>
<path d="M56.0348 6.72C56.4348 6.10667 56.9348 5.62667 57.5348 5.28C58.1348 4.92 58.8015 4.74 59.5348 4.74V8.36H58.5948C57.7415 8.36 57.1015 8.54667 56.6748 8.92C56.2482 9.28 56.0348 9.92 56.0348 10.84V16.02H52.6148V4.86H56.0348V6.72Z" fill="#565656"/>
<path d="M72.1895 10.26C72.1895 10.58 72.1695 10.9133 72.1295 11.26H64.3895C64.4429 11.9533 64.6629 12.4867 65.0495 12.86C65.4495 13.22 65.9362 13.4 66.5095 13.4C67.3629 13.4 67.9562 13.04 68.2895 12.32H71.9295C71.7429 13.0533 71.4029 13.7133 70.9095 14.3C70.4295 14.8867 69.8229 15.3467 69.0895 15.68C68.3562 16.0133 67.5362 16.18 66.6295 16.18C65.5362 16.18 64.5629 15.9467 63.7095 15.48C62.8562 15.0133 62.1895 14.3467 61.7095 13.48C61.2295 12.6133 60.9895 11.6 60.9895 10.44C60.9895 9.28 61.2229 8.26667 61.6895 7.4C62.1695 6.53333 62.8362 5.86667 63.6895 5.4C64.5429 4.93333 65.5229 4.7 66.6295 4.7C67.7095 4.7 68.6695 4.92667 69.5095 5.38C70.3495 5.83333 71.0029 6.48 71.4695 7.32C71.9495 8.16 72.1895 9.14 72.1895 10.26ZM68.6895 9.36C68.6895 8.77333 68.4895 8.30667 68.0895 7.96C67.6895 7.61333 67.1895 7.44 66.5895 7.44C66.0162 7.44 65.5295 7.60667 65.1295 7.94C64.7429 8.27333 64.5029 8.74667 64.4095 9.36H68.6895Z" fill="#565656"/>
<path d="M83.6338 1.98V4.72H77.9137V7.68H82.1937V10.34H77.9137V16.02H74.4938V1.98H83.6338Z" fill="#565656"/>
<path d="M89.3512 1.22V16.02H85.9313V1.22H89.3512Z" fill="#565656"/>
<path d="M94.0497 3.7C93.4497 3.7 92.9564 3.52667 92.5697 3.18C92.1964 2.82 92.0097 2.38 92.0097 1.86C92.0097 1.32667 92.1964 0.886667 92.5697 0.54C92.9564 0.18 93.4497 0 94.0497 0C94.6364 0 95.1163 0.18 95.4897 0.54C95.8764 0.886667 96.0697 1.32667 96.0697 1.86C96.0697 2.38 95.8764 2.82 95.4897 3.18C95.1163 3.52667 94.6364 3.7 94.0497 3.7ZM95.7497 4.86V16.02H92.3297V4.86H95.7497Z" fill="#565656"/>
<path d="M102.968 4.7C103.755 4.7 104.441 4.86 105.028 5.18C105.628 5.5 106.088 5.92 106.408 6.44V4.86H109.828V16C109.828 17.0267 109.621 17.9533 109.208 18.78C108.808 19.62 108.188 20.2867 107.348 20.78C106.521 21.2733 105.488 21.52 104.248 21.52C102.595 21.52 101.255 21.1267 100.228 20.34C99.2015 19.5667 98.6148 18.5133 98.4681 17.18H101.848C101.955 17.6067 102.208 17.94 102.608 18.18C103.008 18.4333 103.501 18.56 104.088 18.56C104.795 18.56 105.355 18.3533 105.768 17.94C106.195 17.54 106.408 16.8933 106.408 16V14.42C106.075 14.94 105.615 15.3667 105.028 15.7C104.441 16.02 103.755 16.18 102.968 16.18C102.048 16.18 101.215 15.9467 100.468 15.48C99.7215 15 99.1281 14.3267 98.6881 13.46C98.2615 12.58 98.0481 11.5667 98.0481 10.42C98.0481 9.27333 98.2615 8.26667 98.6881 7.4C99.1281 6.53333 99.7215 5.86667 100.468 5.4C101.215 4.93333 102.048 4.7 102.968 4.7ZM106.408 10.44C106.408 9.58667 106.168 8.91333 105.688 8.42C105.221 7.92667 104.648 7.68 103.968 7.68C103.288 7.68 102.708 7.92667 102.228 8.42C101.761 8.9 101.528 9.56667 101.528 10.42C101.528 11.2733 101.761 11.9533 102.228 12.46C102.708 12.9533 103.288 13.2 103.968 13.2C104.648 13.2 105.221 12.9533 105.688 12.46C106.168 11.9667 106.408 11.2933 106.408 10.44Z" fill="#565656"/>
<path d="M119.662 4.74C120.942 4.74 121.969 5.16667 122.742 6.02C123.516 6.86 123.902 8.02 123.902 9.5V16.02H120.502V9.96C120.502 9.21333 120.309 8.63333 119.922 8.22C119.536 7.80667 119.016 7.6 118.362 7.6C117.709 7.6 117.189 7.80667 116.802 8.22C116.416 8.63333 116.222 9.21333 116.222 9.96V16.02H112.802V1.22H116.222V6.36C116.569 5.86667 117.042 5.47333 117.642 5.18C118.242 4.88667 118.916 4.74 119.662 4.74Z" fill="#565656"/>
<path d="M132.999 13.12V16.02H131.259C130.019 16.02 129.052 15.72 128.359 15.12C127.666 14.5067 127.319 13.5133 127.319 12.14V7.7H125.959V4.86H127.319V2.14H130.739V4.86H132.979V7.7H130.739V12.18C130.739 12.5133 130.819 12.7533 130.979 12.9C131.139 13.0467 131.406 13.12 131.779 13.12H132.999Z" fill="#565656"/>
</svg>
